PathFileType	4	(X/Y/Z)	OpenSim_Sub08_EMGBaseline_Accel.trc
DataRate	CameraRate	NumFrames	NumMarkers	Units	OrigDataRate	OrigDataStartFrame	OrigNumFrames
100	100	13	8	m	100	4159	6654
Frame#	Time	torso_imu_offset_imu	pelvis_imu_offset_imu	tibia_r_imu_offset_imu	femur_r_imu_offset_imu	tibia_l_imu_offset_imu	femur_l_imu_offset_imu	toes_r_imu_offset_imu	toes_l_imu_offset_imu
				X1	Y1	Z1	X2	Y2	Z2	X3	Y3	Z3	X4	Y4	Z4	X5	Y5	Z5	X6	Y6	Z6	X7	Y7	Z7	X8		Y8	Z8	

4159	41.58000000	7.77693085	-0.30993205	5.76443190	7.97287438	-1.28888456	3.11089196	12.51905895	16.51420431	0.35663501	7.05088203	-0.53549300	2.49864358	9.37099719	-0.99519074	-0.27190783	9.23857104	1.22177242	-1.84249710	8.62711932	5.95596376	12.47778028	5.85675415	1.49576331	10.53461756
4160	41.59000000	8.01462278	-0.33364997	5.85696652	8.24193246	-1.59895478	3.07330007	7.66405834	10.28745298	2.27767803	7.57459773	-0.47039411	2.26184271	9.49138059	-1.39966312	-0.48496240	9.22770170	1.42315344	-1.76311642	9.84485549	5.07757344	12.36218128	6.07941751	1.35390007	10.34980329
4161	41.60000000	8.19861097	-0.30895434	5.97448114	8.62155753	-1.65479486	3.13436208	5.52296451	4.75578756	2.49420478	8.23170046	-0.42863127	2.18493410	9.50846904	-1.79754480	-0.54510176	9.24352013	1.40170695	-1.57553406	11.13938463	3.71288599	12.14011153	5.99036811	1.46538613	10.45828495
4162	41.61000000	8.30364852	-0.31049328	6.07831269	8.95584692	-1.39585885	3.19050676	4.90297447	0.63242452	0.62143913	8.74192505	-0.42028487	2.21083753	9.51260740	-1.76715584	-0.62562139	9.40933499	1.19318501	-1.35604043	11.41567345	3.39801257	11.90274022	5.59719877	1.57090025	10.68247863
4163	41.62000000	8.38107329	-0.37333582	6.12809764	9.14013024	-0.82643750	3.15980067	6.10602805	-0.59613217	-0.43210634	8.90807465	-0.46463435	2.34559136	9.61200285	-1.38057777	-0.67111140	9.57340791	0.88931629	-1.29262039	12.09368509	3.08959119	11.99103907	5.93862697	1.63752705	10.44557526
4164	41.63000000	8.48135168	-0.35840487	6.18904118	9.25272486	-0.23597796	3.06861801	9.19623683	-0.11824243	0.06152966	8.82933312	-0.65217959	2.64943388	9.61134587	-1.41587475	-0.58069486	9.52683223	0.78482498	-1.44742541	13.39230674	0.93331976	11.58733130	6.01890782	1.50644968	10.42207637
4165	41.64000000	8.64139228	-0.31110040	6.24782062	9.20810622	0.22659640	2.92627443	12.66656959	0.80988430	0.65503634	8.72965744	-0.89007756	2.86009096	9.73900968	-1.83981196	-0.56366058	9.55825617	0.85890069	-1.67511679	13.63653481	-0.91143285	10.78862410	5.86581074	1.37264352	10.53032674
4166	41.65000000	8.87420767	-0.30241334	6.31105493	9.21393201	0.55009082	2.79371174	14.54098962	1.70192182	0.48528116	8.71505415	-1.09734635	2.94457147	9.86352957	-2.18422867	-0.60998942	9.65508352	0.88724495	-1.86658616	13.65633876	-2.16481667	10.08396295	5.40770158	1.34081732	10.88278194
4167	41.66000000	9.04615551	-0.29549524	6.40417287	9.27045964	0.54061876	2.65657441	13.88907276	2.69839895	0.22286243	8.80347127	-1.36402591	2.92846625	9.86086238	-2.55125989	-0.59170027	9.61921835	1.07584863	-2.03630347	13.45513319	-2.76522981	9.69275482	5.81909424	1.38052531	10.62677288
4168	41.67000000	9.16215604	-0.26118009	6.46029924	9.42450820	0.34597996	2.60075380	12.17565578	3.82273391	0.07217343	8.92580660	-1.65518323	2.90696880	9.72875528	-2.83451045	-0.85174019	9.57797129	1.19845625	-2.10446468	12.95846397	-3.14254389	9.31374400	6.12013505	1.48686274	10.46735407
4169	41.68000000	9.22605065	-0.23487723	6.43291869	9.64491937	0.07161445	2.56632209	11.32219073	4.58922023	-0.01114798	9.04961820	-2.01571359	2.81063505	9.88459167	-2.74324677	-1.04260094	9.49385455	1.38161235	-2.12862625	12.78428179	-3.42050414	9.09461412	5.95607684	1.49335734	10.42411535
4170	41.69000000	9.23951384	-0.17369114	6.48758057	9.82981612	-0.16653266	2.53778151	11.23691625	4.53000854	0.02358700	9.07837346	-2.49314405	2.71257100	9.85103332	-2.52727895	-1.03388963	9.42872802	1.58951817	-2.02073002	13.03086656	-3.27058711	9.00461822	5.73241821	1.71501507	10.69724972
4171	41.70000000	9.18090446	-0.06492791	6.52958139	9.95512419	-0.33837668	2.45504391	11.45286615	3.48874038	0.12052615	9.04001175	-3.05559002	2.57293823	9.65565459	-2.42549624	-1.03074458	9.41952208	1.47214182	-1.81888578	13.13788132	-2.41839167	8.83189464	5.67199604	1.74631600	10.65894912
